<?xml version="1.0" encoding="UTF-8"?>
<svg width="24" height="24" viewBox="0 0 24 24" fill="none" xmlns="http://www.w3.org/2000/svg">
  <!-- Plant stem -->
  <path d="M12 2V22M12 2C12 2 8 6 8 12C8 18 12 22 12 22M12 2C12 2 16 6 16 12C16 18 12 22 12 22" stroke="currentColor" stroke-width="2" stroke-linecap="round" stroke-linejoin="round"/>
  <!-- Leaves -->
  <path d="M8 8C8 8 4 12 4 16C4 20 8 24 8 24M16 8C16 8 20 12 20 16C20 20 16 24 16 24" stroke="currentColor" stroke-width="2" stroke-linecap="round" stroke-linejoin="round"/>
  <!-- Plant head -->
  <circle cx="12" cy="6" r="2" fill="currentColor"/>
</svg> 