<svg width="200" height="200" viewBox="0 0 200 200" fill="none" xmlns="http://www.w3.org/2000/svg">
  <!-- Bottom Scroll Roll -->
  <path d="M30 170C30 180 40 190 50 190H150C160 190 170 180 170 170C170 160 160 150 150 150H50C40 150 30 160 30 170Z" fill="#D2B48C" stroke="#8B4513" stroke-width="2"/>
  <ellipse cx="30" cy="170" rx="10" ry="20" fill="#D2B48C" stroke="#8B4513" stroke-width="2"/>
  <ellipse cx="170" cy="170" rx="10" ry="20" fill="#D2B48C" stroke="#8B4513" stroke-width="2"/>
  
  <!-- Parchment -->
  <path d="M30 170V40C30 30 40 20 50 20H150C160 20 170 30 170 40V170" fill="#F5F5DC" stroke="#8B4513" stroke-width="2"/>
  <path d="M30 40C30 30 40 20 50 20H150C160 20 170 30 170 40" stroke="#8B4513" stroke-width="2"/>
  
  <!-- Top Scroll Roll -->
  <path d="M30 40C30 30 40 20 50 20H150C160 20 170 30 170 40C170 50 160 60 150 60H50C40 60 30 50 30 40Z" fill="#D2B48C" stroke="#8B4513" stroke-width="2"/>
  <ellipse cx="30" cy="40" rx="10" ry="20" fill="#D2B48C" stroke="#8B4513" stroke-width="2"/>
  <ellipse cx="170" cy="40" rx="10" ry="20" fill="#D2B48C" stroke="#8B4513" stroke-width="2"/>
  
  <!-- Decorative Lines -->
  <path d="M50 80H150" stroke="#8B4513" stroke-width="1" stroke-dasharray="2 2"/>
  <path d="M50 90H150" stroke="#8B4513" stroke-width="1" stroke-dasharray="2 2"/>
  <path d="M50 100H150" stroke="#8B4513" stroke-width="1" stroke-dasharray="2 2"/>
  <path d="M50 110H150" stroke="#8B4513" stroke-width="1" stroke-dasharray="2 2"/>
  <path d="M50 120H150" stroke="#8B4513" stroke-width="1" stroke-dasharray="2 2"/>
  <path d="M50 130H120" stroke="#8B4513" stroke-width="1" stroke-dasharray="2 2"/>
  
  <!-- Quill Pen -->
  <path d="M130 110L160 80" stroke="#8B4513" stroke-width="2"/>
  <path d="M160 80L170 70L165 65L155 75L160 80Z" fill="#F5F5DC" stroke="#8B4513" stroke-width="1"/>
  <path d="M155 75L130 110L125 115L130 115L135 110" fill="#F5F5DC" stroke="#8B4513" stroke-width="1"/>
  
  <!-- Wax Seal -->
  <circle cx="85" cy="145" r="10" fill="#B22222" stroke="#8B4513" stroke-width="1"/>
  <path d="M80 140L85 143L90 140M80 150L85 147L90 150" stroke="#8B4513" stroke-width="1"/>
  <path d="M83 143V147M87 143V147" stroke="#8B4513" stroke-width="1"/>
</svg> 